HIERARCHY
ROOT Hips
{
	OFFSET 0.000000 100.481300 0.000000
	CHANNELS 6 Xposition Yposition Zposition Xrotation Yrotation Zrotation
	JOINT Spine
	{
		OFFSET -0.279200 12.230698 -2.892100
		CHANNELS 3 Xrotation Yrotation Zrotation
		JOINT Spine1
		{
			OFFSET -0.325700 14.269203 -3.374200
			CHANNELS 3 Xrotation Yrotation Zrotation
			JOINT Spine2
			{
				OFFSET -0.372300 16.307602 -0.352600
				CHANNELS 3 Xrotation Yrotation Zrotation
				JOINT Neck
				{
					OFFSET -0.418800 17.814194 8.416900
					CHANNELS 3 Xrotation Yrotation Zrotation
					JOINT Head
					{
						OFFSET 0.000000 7.031097 3.806800
						CHANNELS 3 Xrotation Yrotation Zrotation
						JOINT HeadTop_End
						{
							OFFSET 0.000000 24.646606 12.978600
							CHANNELS 3 Xrotation Yrotation Zrotation
							End Site
							{
								OFFSET 0.000000 27.854965 0.000000
							}
						}
					}
				}
				JOINT LeftShoulder
				{
					OFFSET 16.952999 14.495407 -7.737500
					CHANNELS 3 Xrotation Yrotation Zrotation
					JOINT LeftArm
					{
						OFFSET 9.308998 -2.777710 0.208600
						CHANNELS 3 Xrotation Yrotation Zrotation
						JOINT LeftForeArm
						{
							OFFSET 29.972298 0.000000 0.000000
							CHANNELS 3 Xrotation Yrotation Zrotation
							JOINT LeftHand
							{
								OFFSET 26.026505 0.000000 0.000000
								CHANNELS 3 Xrotation Yrotation Zrotation
								JOINT LeftHandThumb1
								{
									OFFSET 12.240501 -7.147949 9.207150
									CHANNELS 3 Xrotation Yrotation Zrotation
									JOINT LeftHandThumb2
									{
										OFFSET 4.138618 -2.389435 2.389433
										CHANNELS 3 Xrotation Yrotation Zrotation
										JOINT LeftHandThumb3
										{
											OFFSET 2.726913 -1.574387 1.574386
											CHANNELS 3 Xrotation Yrotation Zrotation
											JOINT LeftHandThumb4
											{
												OFFSET 3.941010 -2.275345 2.275342
												CHANNELS 3 Xrotation Yrotation Zrotation
												End Site
												{
													OFFSET -0.005798 5.087799 0.009903
												}
											}
										}
									}
								}
								JOINT LeftHandIndex1
								{
									OFFSET 24.424698 -1.985611 5.953459
									CHANNELS 3 Xrotation Yrotation Zrotation
									JOINT LeftHandIndex2
									{
										OFFSET 6.426697 0.000000 0.000000
										CHANNELS 3 Xrotation Yrotation Zrotation
										JOINT LeftHandIndex3
										{
											OFFSET 5.337898 0.000000 0.000000
											CHANNELS 3 Xrotation Yrotation Zrotation
											JOINT LeftHandIndex4
											{
												OFFSET 4.409401 0.000000 0.000000
												CHANNELS 3 Xrotation Yrotation Zrotation
												End Site
												{
													OFFSET 0.000000 4.409363 0.014373
												}
											}
										}
									}
								}
								JOINT LeftHandMiddle1
								{
									OFFSET 23.810104 0.000000 0.000000
									CHANNELS 3 Xrotation Yrotation Zrotation
									JOINT LeftHandMiddle2
									{
										OFFSET 7.176498 0.000000 0.000000
										CHANNELS 3 Xrotation Yrotation Zrotation
										JOINT LeftHandMiddle3
										{
											OFFSET 6.774902 0.000000 0.000000
											CHANNELS 3 Xrotation Yrotation Zrotation
											JOINT LeftHandMiddle4
											{
												OFFSET 5.403328 0.000000 0.000000
												CHANNELS 3 Xrotation Yrotation Zrotation
												End Site
												{
													OFFSET -0.027702 5.403244 0.017414
												}
											}
										}
									}
								}
								JOINT LeftHandRing1
								{
									OFFSET 22.908401 -0.839279 -6.020567
									CHANNELS 3 Xrotation Yrotation Zrotation
									JOINT LeftHandRing2
									{
										OFFSET 6.337502 0.000000 0.000000
										CHANNELS 3 Xrotation Yrotation Zrotation
										JOINT LeftHandRing3
										{
											OFFSET 5.779297 0.000000 0.000000
											CHANNELS 3 Xrotation Yrotation Zrotation
											JOINT LeftHandRing4
											{
												OFFSET 4.965698 0.000000 0.000000
												CHANNELS 3 Xrotation Yrotation Zrotation
												End Site
												{
													OFFSET 0.000000 4.965668 0.016186
												}
											}
										}
									}
								}
								JOINT LeftHandPinky1
								{
									OFFSET 20.037003 -1.530319 -10.950146
									CHANNELS 3 Xrotation Yrotation Zrotation
									JOINT LeftHandPinky2
									{
										OFFSET 5.254700 0.000000 0.000000
										CHANNELS 3 Xrotation Yrotation Zrotation
										JOINT LeftHandPinky3
										{
											OFFSET 4.810204 0.000000 0.000000
											CHANNELS 3 Xrotation Yrotation Zrotation
											JOINT LeftHandPinky4
											{
												OFFSET 3.647202 0.000000 0.000000
												CHANNELS 3 Xrotation Yrotation Zrotation
												End Site
												{
													OFFSET 0.000000 3.647186 0.011889
												}
											}
										}
									}
								}
							}
						}
					}
				}
				JOINT RightShoulder
				{
					OFFSET -15.141001 14.495407 -7.737500
					CHANNELS 3 Xrotation Yrotation Zrotation
					JOINT RightArm
					{
						OFFSET -9.308998 -2.777710 0.208500
						CHANNELS 3 Xrotation Yrotation Zrotation
						JOINT RightForeArm
						{
							OFFSET -29.972300 0.000000 0.000000
							CHANNELS 3 Xrotation Yrotation Zrotation
							JOINT RightHand
							{
								OFFSET -26.026505 0.000000 0.000000
								CHANNELS 3 Xrotation Yrotation Zrotation
								JOINT RightHandThumb1
								{
									OFFSET -12.240601 -7.148026 9.207092
									CHANNELS 3 Xrotation Yrotation Zrotation
									JOINT RightHandThumb2
									{
										OFFSET -4.138618 -2.389435 2.389433
										CHANNELS 3 Xrotation Yrotation Zrotation
										JOINT RightHandThumb3
										{
											OFFSET -2.726974 -1.574417 1.574421
											CHANNELS 3 Xrotation Yrotation Zrotation
											JOINT RightHandThumb4
											{
												OFFSET -3.941010 -2.275345 2.275343
												CHANNELS 3 Xrotation Yrotation Zrotation
												End Site
												{
													OFFSET 0.005814 5.087799 0.009927
												}
											}
										}
									}
								}
								JOINT RightHandIndex1
								{
									OFFSET -24.424698 -1.985657 5.953444
									CHANNELS 3 Xrotation Yrotation Zrotation
									JOINT RightHandIndex2
									{
										OFFSET -6.426697 0.000000 0.000000
										CHANNELS 3 Xrotation Yrotation Zrotation
										JOINT RightHandIndex3
										{
											OFFSET -5.337898 0.000000 0.000000
											CHANNELS 3 Xrotation Yrotation Zrotation
											JOINT RightHandIndex4
											{
												OFFSET -4.409401 0.000000 0.000000
												CHANNELS 3 Xrotation Yrotation Zrotation
												End Site
												{
													OFFSET 0.000000 4.409363 0.014408
												}
											}
										}
									}
								}
								JOINT RightHandMiddle1
								{
									OFFSET -23.810097 0.000000 0.000000
									CHANNELS 3 Xrotation Yrotation Zrotation
									JOINT RightHandMiddle2
									{
										OFFSET -7.176498 0.000000 0.000000
										CHANNELS 3 Xrotation Yrotation Zrotation
										JOINT RightHandMiddle3
										{
											OFFSET -6.774902 0.000000 0.000000
											CHANNELS 3 Xrotation Yrotation Zrotation
											JOINT RightHandMiddle4
											{
												OFFSET -5.403328 0.000000 0.000000
												CHANNELS 3 Xrotation Yrotation Zrotation
												End Site
												{
													OFFSET 0.027702 5.403244 0.017457
												}
											}
										}
									}
								}
								JOINT RightHandRing1
								{
									OFFSET -22.908302 -0.839325 -6.020576
									CHANNELS 3 Xrotation Yrotation Zrotation
									JOINT RightHandRing2
									{
										OFFSET -6.337502 0.000000 0.000000
										CHANNELS 3 Xrotation Yrotation Zrotation
										JOINT RightHandRing3
										{
											OFFSET -5.779297 0.000000 0.000000
											CHANNELS 3 Xrotation Yrotation Zrotation
											JOINT RightHandRing4
											{
												OFFSET -4.965698 0.000000 0.000000
												CHANNELS 3 Xrotation Yrotation Zrotation
												End Site
												{
													OFFSET 0.000000 4.965668 0.016226
												}
											}
										}
									}
								}
								JOINT RightHandPinky1
								{
									OFFSET -20.037003 -1.530334 -10.950259
									CHANNELS 3 Xrotation Yrotation Zrotation
									JOINT RightHandPinky2
									{
										OFFSET -5.254700 0.000000 0.000000
										CHANNELS 3 Xrotation Yrotation Zrotation
										JOINT RightHandPinky3
										{
											OFFSET -4.810204 0.000000 0.000000
											CHANNELS 3 Xrotation Yrotation Zrotation
											JOINT RightHandPinky4
											{
												OFFSET -3.647202 0.000000 0.000000
												CHANNELS 3 Xrotation Yrotation Zrotation
												End Site
												{
													OFFSET 0.000000 3.647186 0.011917
												}
											}
										}
									}
								}
							}
						}
					}
				}
			}
		}
	}
	JOINT LeftUpLeg
	{
		OFFSET 15.427100 -6.655098 0.678600
		CHANNELS 3 Xrotation Yrotation Zrotation
		JOINT LeftLeg
		{
			OFFSET 4.081073 -39.591068 13.024000
			CHANNELS 3 Xrotation Yrotation Zrotation
			JOINT LeftFoot
			{
				OFFSET -4.081074 -37.707932 -15.979700
				CHANNELS 3 Xrotation Yrotation Zrotation
				JOINT LeftToeBase
				{
					OFFSET 5.346399 -15.068900 20.645000
					CHANNELS 3 Xrotation Yrotation Zrotation
					JOINT LeftToe_End
					{
						OFFSET 2.754700 0.931300 11.300900
						CHANNELS 3 Xrotation Yrotation Zrotation
						End Site
						{
							OFFSET 0.000000 11.669021 0.000000
						}
					}
				}
			}
		}
	}
	JOINT RightUpLeg
	{
		OFFSET -15.569500 -6.655098 0.678600
		CHANNELS 3 Xrotation Yrotation Zrotation
		JOINT RightLeg
		{
			OFFSET -4.081825 -39.591045 13.023800
			CHANNELS 3 Xrotation Yrotation Zrotation
			JOINT RightFoot
			{
				OFFSET 4.081824 -37.707954 -15.979600
				CHANNELS 3 Xrotation Yrotation Zrotation
				JOINT RightToeBase
				{
					OFFSET -5.346400 -15.068900 20.645000
					CHANNELS 3 Xrotation Yrotation Zrotation
					JOINT RightToe_End
					{
						OFFSET -2.754700 0.931300 11.300900
						CHANNELS 3 Xrotation Yrotation Zrotation
						End Site
						{
							OFFSET 0.000000 11.669021 0.000000
						}
					}
				}
			}
		}
	}
}
MOTION
Frames: 4
Frame Time: 0.033333
0.278100 77.211517 0.525311 -0.249682 -0.041747 -1.318852 16.719087 0.503324 0.516272 20.230747 0.557332 0.823606 12.700932 0.459311 0.847977 3.024232 -0.773003 0.199884 -21.744015 3.387462 -1.363011 -0.000002 -0.000000 0.000000 20.363212 -17.867155 8.241606 -33.978320 -18.609416 -35.995063 -2.614825 -52.012498 -20.369366 -55.240507 -19.754493 -14.945134 36.783956 8.594947 -16.858220 2.297225 23.058804 15.135202 0.424827 18.459339 14.533454 -0.000002 0.000000 0.000003 0.656867 9.458285 -24.558965 0.396818 2.032334 -21.973226 0.526900 0.713281 -27.300027 0.000000 -0.000000 -0.000002 0.652469 9.449118 -24.560196 0.393683 2.027585 -21.973552 0.393676 2.027583 -21.973555 0.000001 -0.000000 0.000001 0.653686 9.453226 -24.557832 0.390508 2.027401 -21.971530 0.390551 2.027375 -21.971540 0.000002 0.000000 -0.000001 0.646721 9.447431 -24.557143 0.385279 2.022478 -21.972290 0.385281 2.022474 -21.972287 -0.000000 -0.000000 -0.000000 18.364960 13.473823 -8.210300 -29.324540 9.904480 43.990687 -38.652546 59.815033 39.959923 -15.110118 -0.881254 14.263234 40.081087 0.938696 20.753421 5.158301 -21.107373 -19.110249 4.784211 -12.469636 -21.502691 0.000001 0.000000 -0.000001 18.326709 0.101081 38.986610 -3.926707 9.263400 32.271312 -5.634477 12.219113 12.792308 0.000005 0.000000 0.000000 -3.493277 -2.449291 34.033279 0.778828 -2.791139 31.045894 0.778094 -2.796909 31.045440 0.000001 -0.000004 0.000002 -12.757619 -10.094422 31.809547 -8.973314 -8.731699 30.672904 -8.960493 -8.753980 30.667136 0.000000 -0.000001 0.000000 -16.766103 -2.971333 36.674561 0.750924 -2.750493 30.600351 1.344869 -3.570842 41.062701 -0.000000 -0.000001 -0.000003 -35.747643 -0.159430 30.218898 46.432685 -6.194745 -9.074378 -10.598254 -7.204857 -13.120967 -3.687693 -12.882719 -1.577971 -0.000000 -0.000000 0.000000 -39.775969 -10.396225 -25.238799 48.022305 7.019417 -2.189642 -9.607333 3.037866 15.226628 -8.635893 9.209497 9.969891 0.000002 -0.000000 -0.000000 
-0.884026 76.975372 0.721992 -0.249035 -0.036877 -1.155860 16.629433 0.895822 0.481726 20.168370 0.800962 0.775505 12.633673 0.720238 0.817590 3.146512 -0.317202 0.594023 -21.720674 4.436540 -1.717235 0.000001 -0.000000 0.000000 20.420399 -18.220694 8.186000 -33.155794 -20.505466 -34.871264 -2.607216 -52.010350 -20.360307 -56.165458 -21.645872 -13.981654 36.826594 8.648072 -16.829320 2.300518 23.132638 15.152645 0.425211 18.532996 14.552719 0.000001 0.000000 0.000000 0.675318 9.485727 -24.630820 0.417310 2.032931 -22.047176 0.546683 0.712430 -27.373561 -0.000003 0.000000 -0.000000 0.666099 9.449422 -24.637092 0.396365 2.034229 -22.049357 0.396354 2.034224 -22.049360 0.000001 0.000001 -0.000001 0.655838 9.440024 -24.633374 0.385622 2.019242 -22.047137 0.385612 2.019242 -22.047139 -0.000001 0.000001 -0.000001 0.658985 9.428578 -24.632111 0.387953 2.029130 -22.048088 0.387967 2.029124 -22.048091 -0.000001 -0.000000 -0.000000 18.350249 13.484559 -8.144088 -29.477269 9.170927 43.983386 -37.019537 59.073500 38.234234 -15.243393 -1.507373 14.048148 40.088921 0.928014 20.752053 5.162478 -21.119698 -19.111993 4.790122 -12.482008 -21.500966 -0.000000 -0.000000 -0.000000 18.324984 0.104020 38.999690 -3.927714 9.262363 32.277626 -5.634734 12.218046 12.798454 -0.000002 -0.000003 0.000004 -3.494400 -2.451418 34.046533 0.779487 -2.792226 31.059380 0.778744 -2.797995 31.058916 -0.000001 0.000002 -0.000001 -12.757048 -10.098659 31.822469 -8.971292 -8.735052 30.686155 -8.958477 -8.757336 30.680383 0.000000 0.000004 -0.000002 -16.767145 -2.976436 36.686964 0.751571 -2.751596 30.613823 1.345716 -3.571796 41.076228 -0.000003 0.000000 -0.000000 -35.597802 -0.998864 30.942990 45.702671 -6.541997 -9.771893 -10.012560 -7.325324 -13.652111 -3.664025 -12.886135 -1.594136 0.000000 -0.000000 0.000000 -40.044993 -11.264753 -25.486962 49.371476 7.014436 -1.925618 -10.816886 3.047911 14.199911 -8.588283 9.205851 9.951588 0.000000 -0.000001 -0.000000 
-2.259132 76.826523 0.757304 -0.245276 -0.029817 -0.974454 16.656238 1.519160 0.397268 20.205271 1.186734 0.649157 12.661756 1.143031 0.753309 3.327502 0.360484 1.129951 -21.688373 6.017339 -2.056228 0.000001 0.000000 0.000000 20.379485 -18.761812 7.686942 -32.327589 -24.023700 -32.705336 -2.567555 -51.712793 -20.308833 -57.460346 -24.278409 -13.055928 36.951231 8.801417 -16.748097 2.310578 23.344605 15.209510 0.426367 18.745709 14.610967 0.000000 0.000001 0.000001 0.725486 9.565939 -24.838717 0.477779 2.049515 -22.261688 0.604857 0.720749 -27.587286 -0.000001 0.000001 -0.000002 0.704211 9.449579 -24.860750 0.404195 2.053481 -22.269335 0.404208 2.053476 -22.269342 0.000003 -0.000000 0.000000 0.664021 9.406394 -24.852738 0.371328 2.000798 -22.266072 0.371284 2.000816 -22.266084 -0.000002 -0.000000 0.000000 0.695560 9.378351 -24.849960 0.395791 2.048407 -22.268061 0.395776 2.048411 -22.268058 -0.000000 0.000001 -0.000000 18.339128 13.501103 -8.087896 -29.903296 8.229816 43.715325 -34.259228 57.688843 35.330393 -15.475458 -2.204011 13.895569 40.121849 0.887327 20.742718 5.175477 -21.170207 -19.118676 4.805259 -12.532425 -21.502889 -0.000000 -0.000001 -0.000002 18.318270 0.115630 39.051074 -3.935907 9.254120 32.328487 -5.644348 12.208411 12.849503 0.000000 -0.000001 -0.000000 -3.498811 -2.459749 34.098606 0.782068 -2.796510 31.112376 0.781340 -2.802276 31.111911 0.000002 -0.000003 -0.000001 -12.754772 -10.115252 31.873269 -8.963389 -8.748227 30.738204 -8.950551 -8.770515 30.732433 -0.000000 -0.000001 -0.000001 -16.771249 -2.996505 36.735759 0.754128 -2.755898 30.666808 1.349025 -3.575558 41.129299 -0.000001 -0.000003 0.000001 -35.411327 -1.592383 32.047425 44.469169 -6.985488 -10.708013 -9.301691 -7.606304 -14.326897 -3.555034 -12.887883 -1.593816 -0.000000 -0.000000 -0.000000 -40.503384 -12.525298 -25.207670 50.752380 7.569949 -2.147401 -11.936067 2.352278 12.817570 -8.560526 9.202541 9.922720 0.000001 0.000000 -0.000000 
-3.842937 76.897240 0.852788 -0.241546 -0.020706 -0.771924 16.706064 2.184333 0.302540 20.261527 1.603385 0.516837 12.709228 1.591408 0.653680 3.530021 1.146226 1.747116 -21.626880 7.856546 -2.435329 0.000001 0.000000 0.000001 20.273335 -19.129869 7.119351 -31.240814 -27.689573 -30.574372 -2.512731 -51.135953 -20.235936 -58.297003 -26.919036 -12.565893 37.150970 9.047887 -16.618552 2.326196 23.684576 15.301507 0.427606 19.087056 14.705051 -0.000000 -0.000000 0.000000 0.802890 9.696940 -25.171776 0.563533 2.048561 -22.608455 0.690916 0.715424 -27.931925 -0.000005 -0.000001 -0.000001 0.766074 9.451325 -25.219702 0.416953 2.084309 -22.622416 0.416952 2.084309 -22.622418 -0.000003 -0.000000 -0.000001 0.676705 9.352779 -25.204665 0.346604 1.972394 -22.617391 0.346476 1.972461 -22.617384 -0.000003 -0.000001 -0.000000 0.753930 9.297756 -25.199501 0.408499 2.079308 -22.621125 0.408511 2.079294 -22.621129 0.000001 -0.000000 -0.000001 18.298606 13.547816 -7.917583 -30.666569 7.630959 42.756803 -31.050890 55.764885 31.948432 -15.718726 -2.812416 14.066465 40.177478 0.818146 20.726322 5.192540 -21.257418 -19.129272 4.825691 -12.619884 -21.507255 0.000001 0.000001 0.000000 18.306794 0.135299 39.138343 -3.950114 9.239729 32.416983 -5.663274 12.191357 12.938803 0.000000 -0.000001 0.000001 -3.506265 -2.473906 34.186992 0.786473 -2.803766 31.202333 0.785744 -2.809540 31.201868 -0.000002 0.000004 -0.000001 -12.750865 -10.143418 31.959504 -8.949938 -8.770596 30.826543 -8.937052 -8.792843 30.820795 -0.000001 0.000001 0.000001 -16.778148 -3.030550 36.818575 0.758457 -2.763201 30.756762 1.354643 -3.581928 41.219386 -0.000000 -0.000002 -0.000001 -34.787035 -2.179642 33.209350 42.786245 -7.178334 -11.692954 -8.722432 -7.839555 -15.274661 -3.428671 -12.889764 -1.594174 0.000001 0.000000 0.000000 -41.004860 -14.628042 -24.396164 51.995577 9.593567 -2.786953 -13.005959 0.334645 10.530708 -8.532257 9.195529 9.889382 0.000000 0.000001 -0.000001 
